<svg width="408" height="306" viewBox="0 0 408 306" fill="none" xmlns="http://www.w3.org/2000/svg">
<rect x="2" y="2" width="404" height="302" rx="6" stroke="#5E1C16" stroke-width="4"/>
<path d="M104 41.3907C104.995 41.3907 106.012 41.503 107.008 41.5516C108.655 41.6319 110.311 41.5838 111.96 41.5838C114.06 41.5838 116.161 41.5838 118.261 41.5838C119.485 41.5838 120.715 41.4279 121.938 41.5552C123.422 41.7098 124.899 41.7125 126.387 41.7125C127.846 41.7125 129.273 41.6482 130.729 41.6482C130.795 41.6482 130.861 41.6482 130.926 41.6482C131.526 41.6482 129.729 41.5811 129.13 41.5444C127.605 41.4511 126.084 41.2284 124.557 41.2011C123.852 41.1885 123.147 41.1975 122.443 41.1975C121.921 41.1975 121.405 41.0843 120.884 41.0724C116.972 40.9834 113.059 41.0044 109.146 41.0044C108.379 41.0044 107.608 40.9814 106.841 41.0402C106.626 41.0567 106.061 40.9929 105.889 41.2262C105.733 41.4378 105.926 41.9518 106.08 42.131C106.227 42.3017 106.483 42.1991 106.619 42.342C106.746 42.4742 106.92 42.5182 107.082 42.5637C107.282 42.6203 107.488 42.6644 107.692 42.7067C107.847 42.7391 108.21 42.6589 108.33 42.7747C108.449 42.8907 108.955 42.7425 109.131 42.7425C109.751 42.7425 110.35 42.6585 110.97 42.7282C112.729 42.9257 114.52 42.7425 116.283 42.7425C117.159 42.7425 118.058 42.6826 118.933 42.7461C119.717 42.803 120.494 42.8069 121.281 42.8069C121.835 42.8069 122.428 42.8742 122.982 42.7926C123.798 42.6724 124.649 42.736 125.457 42.9034C126.085 43.0336 126.791 42.9356 127.423 42.9356C128.29 42.9356 129.153 43 130.02 43C130.606 43 131.191 42.9356 131.783 42.9356C134.188 42.9356 136.594 43 139 43" stroke="#5E1C16" stroke-linecap="round"/>
<path d="M132.148 42.2586C131.923 42.2828 131.709 42.3089 131.468 42.313C131.319 42.3155 131.173 42.3514 131.025 42.3673C130.901 42.3807 131.271 42.4217 131.396 42.4217C132.483 42.4217 133.574 42.3673 134.664 42.3673C136.389 42.3673 138.148 42.337 139.871 42.2314C141.258 42.1463 142.685 42.1619 144.071 42.2465C144.789 42.2904 145.495 42.2042 146.21 42.2042C146.791 42.2042 147.368 42.0954 147.956 42.0954C148.81 42.0954 149.665 42.1102 150.519 42.0924C151.5 42.0719 152.479 42.041 153.462 42.041C153.694 42.041 153.943 42.0677 154.173 42.038C154.571 41.9865 155.04 41.9584 155.414 42.1498C155.561 42.2253 155.495 42.551 155.495 42.6937C155.495 42.8246 155.404 43.2103 155.298 43.2919C155.249 43.3301 155.235 43.472 155.183 43.5366C155.003 43.7612 154.582 43.791 154.329 43.8358C153.497 43.9831 152.7 44.0124 151.859 43.9959C149.065 43.9412 146.274 43.727 143.478 43.727C142.577 43.727 141.676 43.727 140.775 43.727C140.302 43.727 139.821 43.833 139.35 43.8781C139.042 43.9076 138.817 43.8186 138.518 43.7844C138.157 43.7432 138.208 43.3185 138.334 43.0321C138.538 42.5676 139.482 42.7034 139.852 42.6967C140.952 42.6768 141.968 43.0045 143.048 43.0623C145.29 43.1823 147.558 42.9656 149.802 42.9656C151.867 42.9656 153.939 42.8515 156 42.9656" stroke="#5E1C16" stroke-linecap="round"/>
<path d="M155.682 42.2562C161.094 42.2562 166.504 42.212 171.915 42.212C173.442 42.212 174.972 42.2443 176.5 42.2586C178.118 42.2738 179.728 42.3888 181.347 42.3888C182.358 42.3888 183.375 42.4111 184.379 42.3004C185.144 42.2161 185.932 42.2821 186.689 42.1874C188.319 41.9833 190.015 42.0352 191.664 42.0352C192.337 42.0352 193.078 41.9514 193.739 42.0425C193.928 42.0687 193.932 42.3871 193.952 42.5189C194.001 42.8334 194.057 43.4259 193.873 43.6928C193.821 43.7678 193.763 43.8351 193.656 43.8573C192.776 44.0395 191.7 44.0145 190.801 43.9604C190.012 43.9129 189.244 43.8917 188.452 43.8917C187.404 43.8917 186.379 43.8168 185.334 43.7689C183.536 43.6864 181.729 43.6411 179.928 43.6264C179.005 43.6189 178.083 43.5874 177.159 43.5822C176.547 43.5788 175.944 43.5042 175.334 43.4693C174.581 43.4262 173.825 43.4631 173.071 43.4398C170.591 43.3634 168.096 43.2728 165.615 43.2728C165.037 43.2728 164.455 43.4054 163.87 43.4054C162.413 43.4054 160.96 43.4203 159.502 43.4054C158.232 43.3925 156.946 43.3612 155.682 43.3612C155.499 43.3612 155.316 43.3612 155.133 43.3612C154.967 43.3612 154.953 42.9929 155.109 42.9634C156.417 42.7156 157.829 42.8308 159.166 42.8308C159.463 42.8308 159.76 42.8308 160.057 42.8308C160.072 42.8308 160.626 42.8249 160.466 42.8996C159.953 43.1385 159.098 43.1096 158.544 43.1329C157.883 43.1606 157.223 43.1558 156.561 43.1599C156.482 43.1604 156.252 43.1475 156.149 43.1844C155.967 43.2496 155.832 43.3925 155.655 43.4717C155.34 43.6124 156.324 43.5573 156.405 43.5601C157.604 43.6021 158.806 43.6324 160.005 43.6682C161.442 43.711 162.889 43.6707 164.328 43.6707C167.772 43.6707 171.237 43.7547 174.675 43.6289C175.529 43.5977 176.372 43.6155 177.226 43.5577C178.814 43.4501 180.4 43.3286 181.991 43.2286C184.295 43.0837 186.604 43.0473 188.916 42.9732C189.45 42.9561 189.985 42.9676 190.52 42.9634C190.965 42.9599 191.395 42.875 191.838 42.875C191.99 42.875 192.923 42.8726 192.9 42.9192C192.839 43.0378 192.746 43.0591 192.613 43.1157C192.036 43.3602 191.334 43.5689 190.673 43.5822C190.285 43.59 189.921 43.4938 189.526 43.4938C187.201 43.4938 184.864 43.4278 182.546 43.2876C180.515 43.1647 178.511 42.8854 176.469 42.875C174.91 42.8671 173.371 42.8152 171.826 42.6442C171.078 42.5613 170.362 42.5656 169.605 42.5656C167.533 42.5656 165.454 42.6048 163.382 42.5558C162.025 42.5236 160.66 42.561 159.307 42.4772" stroke="#5E1C16" stroke-linecap="round"/>
<path d="M195 42.1458C195.923 42.1458 196.845 42.1604 197.76 42.2709C198.504 42.361 199.194 42.3711 199.953 42.3711C203.602 42.3711 207.235 42.3668 210.875 42.1708C214.462 41.9776 218.112 42.1007 221.711 42.1007C227.709 42.1007 233.709 41.9059 239.705 42.0582C241.52 42.1043 243.334 42.1007 245.151 42.1007C246.611 42.1007 248.098 42.1697 249.555 42.0907C249.976 42.0679 250.39 42.0456 250.812 42.0557C251.096 42.0624 251.405 42.1009 251.681 42.1558C251.825 42.1846 251.781 42.2956 251.856 42.3686C252.042 42.5496 251.995 42.819 251.995 43.0469C251.995 43.2824 251.785 43.4444 251.508 43.5176C249.674 44.001 247.631 43.9212 245.736 43.9681C243.652 44.0197 241.568 43.9932 239.483 43.9932C237.73 43.9932 235.98 43.9791 234.229 43.9456C232.463 43.9119 230.697 43.7276 228.934 43.6552C226.559 43.5578 224.159 43.6327 221.782 43.6327C220.007 43.6327 218.231 43.6327 216.456 43.6327C215.056 43.6327 213.628 43.5679 212.23 43.6552C211.703 43.6882 211.179 43.7228 210.65 43.7228C209.73 43.7228 208.825 43.8129 207.906 43.8129C204.308 43.8129 200.711 43.8129 197.113 43.8129C196.556 43.8129 196 43.8129 195.444 43.8129C195.374 43.8129 195.339 43.8004 195.277 43.7779C195.106 43.7162 195.09 43.6488 195.059 43.48C195.011 43.2304 195.189 43.2331 195.462 43.1821C196.095 43.0639 196.781 43.1344 197.427 43.092C199.032 42.9868 200.633 43.0976 202.238 43.092C203.581 43.0873 204.917 43.0019 206.261 43.0019C206.645 43.0019 207.016 43.0417 207.394 43.0469C209.811 43.0802 212.232 43.0469 214.648 43.0469C217.854 43.0469 221.052 42.9118 224.258 42.9118C230.023 42.9118 235.791 42.8217 241.553 42.8217C243.789 42.8217 246.017 42.7315 248.252 42.7315C248.824 42.7315 249.394 42.6865 249.956 42.6865C250.11 42.6865 250.609 42.5962 250.609 42.7991C250.609 42.8273 250.632 43.1205 250.596 43.1271C249.278 43.3682 247.851 43.4333 246.506 43.5426C246.359 43.5545 246.213 43.5778 246.065 43.5877C244.79 43.6722 243.448 43.6982 242.175 43.5877C239.607 43.3645 237 43.4074 234.419 43.4074" stroke="#5E1C16" stroke-linecap="round"/>
<path d="M251.288 42.2914C251.267 42.4791 250.76 42.5647 250.649 42.5932C250.585 42.6094 249.946 42.7637 250.004 42.6563C250.194 42.3009 250.563 42.143 250.907 42.0878C252.215 41.8777 253.537 41.8542 254.849 41.6316C256.134 41.4134 257.422 41.4471 258.723 41.5017C260.721 41.5856 262.783 41.4303 264.776 41.2315C266.094 41.0999 267.423 41.0606 268.745 41.0069C269.498 40.9763 270.184 41.0552 270.923 41.0876C272.593 41.161 274.283 41.2175 275.953 41.2175C276.43 41.2175 276.918 41.178 277.391 41.2491C277.498 41.2652 277.818 41.2212 277.91 41.2912C277.987 41.3499 277.999 41.6763 277.999 41.786C277.999 42.2299 278.023 42.5782 277.833 42.9581C277.509 43.6066 276.423 43.58 275.873 43.632C274.987 43.7155 274.105 43.8533 273.218 43.9303C271.903 44.0444 270.584 43.9985 269.267 43.9338C266.981 43.8214 264.686 43.8665 262.404 43.667C260.643 43.5132 258.905 43.3652 257.138 43.3652C256.404 43.3652 255.672 43.3021 254.938 43.3021C253.876 43.3021 252.816 43.2389 251.755 43.2389C251.645 43.2389 251.349 43.3211 251.349 43.1301C251.349 42.9265 251.443 42.5956 251.62 42.4949C251.802 42.3908 252.207 42.4311 252.4 42.4177C253.007 42.3757 253.604 42.3545 254.213 42.3545C257.397 42.3545 260.578 42.2914 263.762 42.2914C265.09 42.2914 266.417 42.2806 267.743 42.3545C268.514 42.3975 269.316 42.4877 270.088 42.4142C270.728 42.3533 271.363 42.2316 272.008 42.1931C273.079 42.1291 274.156 42.165 275.228 42.165C275.368 42.165 277.209 41.9147 277.225 42.2282C277.235 42.4349 276.977 42.4922 276.844 42.544C276.187 42.7991 275.532 42.9248 274.844 43.0178C273.76 43.1644 272.671 43.083 271.584 43.0494C270.302 43.0098 269.018 43.0259 267.737 42.9722C265.551 42.8805 263.384 42.6704 261.193 42.6704C260.345 42.6704 259.546 42.8697 258.702 42.9511C256.914 43.1233 255.077 42.9715 253.288 42.9266C252.74 42.9128 252.192 42.94 251.644 42.9231C251.431 42.9165 251.446 42.6245 251.509 42.4809" stroke="#5E1C16" stroke-linecap="round"/>
<path d="M277 41.0607C277.206 41.1428 277.433 41.1213 277.649 41.1213C278.818 41.1213 279.987 41.1161 281.157 41.091C283.252 41.046 285.346 41.086 287.441 41.0573C288.28 41.0459 289.117 40.9974 289.956 41.0001C291.059 41.0036 292.138 41.1582 293.234 41.2627C295.002 41.4314 296.815 41.4614 298.589 41.4849C301.127 41.5186 303.665 41.4243 306.208 41.4243C307.048 41.4243 308 41.3132 308.812 41.5725C309.104 41.6656 309.012 42.0695 308.834 42.2862C308.585 42.589 307.871 42.6633 307.518 42.7172C306.32 42.8998 305.047 42.8005 303.841 42.8148C303.01 42.8247 302.178 42.8182 301.347 42.8182C298.565 42.8182 295.785 42.7576 293.003 42.7576C291.064 42.7576 289.119 42.8182 287.177 42.8182C285.706 42.8182 284.222 42.7545 282.752 42.8216C281.72 42.8687 280.691 43 279.656 43C279.273 43 278.89 43 278.507 43C278.242 43 278.273 42.7983 278.273 42.5488C278.273 41.929 279.332 42.0246 279.693 42.0304C280.771 42.0476 281.833 42.3094 282.912 42.33C285.403 42.3774 287.914 42.3686 290.402 42.2425C292.184 42.1521 293.978 42.2122 295.761 42.2122" stroke="#5E1C16" stroke-linecap="round"/>
<path d="M309.438 42.1456C309.586 42.1456 309.718 42.0966 309.865 42.0845C311.082 41.9851 312.317 42.0011 313.537 42.0303C314.955 42.0643 316.369 42.1456 317.789 42.1456C318.792 42.1456 319.791 42.0235 320.797 42.0235C322.043 42.0235 323.29 42.0235 324.536 42.0235C327.867 42.0235 331.197 42.0235 334.528 42.0235C334.811 42.0235 335.093 42.0235 335.376 42.0235C335.516 42.0235 335.863 41.9524 335.972 42.0574C336.151 42.2297 335.413 42.4329 335.382 42.4473C334.505 42.8622 333.375 42.939 332.43 42.939C329.589 42.939 326.747 42.939 323.906 42.939C318.603 42.939 313.302 43 308 43" stroke="#5E1C16" stroke-linecap="round"/>
<path d="M335.495 41.2146C336.024 41.2146 336.553 41.1339 337.083 41.1192C338.546 41.0787 340.014 41.1073 341.478 41.1073C342.991 41.1073 344.5 41 346.013 41C346.81 41 347.607 41 348.405 41C349.985 41 351.544 41.1609 353.123 41.1609C354.337 41.1609 355.549 41.2146 356.764 41.2146C358.434 41.2146 360.107 41.1609 361.779 41.1609C363.114 41.1609 364.443 41.0536 365.78 41.0536C366.602 41.0536 367.416 41 368.238 41C368.736 41 369.232 41.0536 369.725 41.0536C370.011 41.0536 370.347 41.0055 370.623 41.0805C370.678 41.0954 370.962 41.0769 370.996 41.1192C371.091 41.2382 369.48 41.5291 369.383 41.5364C367.681 41.6648 365.956 41.5901 364.249 41.5901C362.923 41.5901 361.596 41.5901 360.27 41.5901C359.023 41.5901 357.792 41.4939 356.547 41.4291C355.622 41.381 354.702 41.3755 353.777 41.3755C352.835 41.3755 351.916 41.5562 350.988 41.6467C350.388 41.7053 349.811 41.6673 349.208 41.6467C347.875 41.6011 346.534 41.6437 345.201 41.6437C344.175 41.6437 343.182 41.6793 342.159 41.7719C341.218 41.857 340.256 41.8047 339.312 41.8047C338.649 41.8047 337.985 41.8047 337.321 41.8047C336.913 41.8047 336.511 41.8984 336.106 41.9358C335.901 41.9546 335.086 42.109 335 41.8583" stroke="#5E1C16" stroke-linecap="round"/>
<ellipse cx="204" cy="36" rx="179" ry="8" fill="#391714"/>
<path d="M23 20C23 16.134 26.134 13 30 13H378C381.866 13 385 16.134 385 20V41H23V20Z" fill="#391714" stroke="#5E1C16" stroke-width="2"/>
<path d="M407.546 39.3525C407.546 39.3525 407.545 39.3549 407.54 39.3595C407.543 39.3547 407.546 39.3524 407.546 39.3525ZM406.797 39.3125C407.012 39.3798 407.177 39.443 407.301 39.5C407.177 39.557 407.012 39.6202 406.797 39.6875C406.137 39.8946 405.131 40.1054 403.779 40.3159C401.081 40.7359 397.089 41.1429 391.931 41.5315C381.619 42.3083 366.69 43.0084 348.234 43.5964C311.324 44.7725 260.329 45.5 204 45.5C147.671 45.5 96.6761 44.7725 59.7661 43.5964C41.3101 43.0084 26.381 42.3083 16.0689 41.5315C10.9107 41.1429 6.91884 40.7359 4.22148 40.3159C2.86929 40.1054 1.86286 39.8946 1.20291 39.6875C0.988424 39.6202 0.822756 39.557 0.699298 39.5C0.822756 39.443 0.988424 39.3798 1.20291 39.3125C1.86286 39.1054 2.86929 38.8946 4.22148 38.6841C6.91884 38.2641 10.9107 37.8571 16.0689 37.4685C26.381 36.6917 41.3101 35.9916 59.7661 35.4036C96.6761 34.2275 147.671 33.5 204 33.5C260.329 33.5 311.324 34.2275 348.234 35.4036C366.69 35.9916 381.619 36.6917 391.931 37.4685C397.089 37.8571 401.081 38.2641 403.779 38.6841C405.131 38.8946 406.137 39.1054 406.797 39.3125ZM0.453841 39.3525C0.454176 39.3524 0.456705 39.3548 0.460421 39.3596C0.455364 39.3549 0.453506 39.3525 0.453841 39.3525ZM0.453841 39.6475C0.453506 39.6475 0.455364 39.6451 0.460421 39.6404C0.456705 39.6452 0.454176 39.6476 0.453841 39.6475ZM407.54 39.6405C407.545 39.6451 407.547 39.6475 407.546 39.6475C407.546 39.6475 407.543 39.6452 407.54 39.6405Z" fill="#391714" stroke="#5E1C16"/>
<path d="M25 36.831C26.8248 36.831 28.9367 37.1628 30.6942 36.6621C32.1623 36.2439 34.0456 36.1552 35.5856 36.1552C37.1049 36.1552 38.6014 36.4931 40.1223 36.4931C41.1516 36.4931 42.1625 36.341 43.1842 36.3242C44.7178 36.2989 46.3055 36.1667 47.8142 35.9112C49.5674 35.6143 51.3419 35.6127 53.1164 35.6484C53.7034 35.6602 52.685 35.8814 52.631 35.8924C47.4774 36.9412 42.0445 36.6621 36.8178 36.6621C35.7079 36.6621 34.5585 36.831 33.4853 36.831C31.7052 36.831 29.9096 37 28.0991 37C27.8681 37 25.349 36.8368 25.6068 36.5776C25.9259 36.2568 27.5246 36.3408 27.8844 36.3242C30.0222 36.2254 32.1482 36.1552 34.2881 36.1552C36.4756 36.1552 38.663 36.1552 40.8505 36.1552C46.8378 36.1552 52.6959 35.1402 58.6426 34.8412C58.9028 34.8281 61.382 34.7687 60.8829 34.9163C59.1594 35.426 57.2232 35.6035 55.4314 35.7798C54.9345 35.8287 54.4363 35.8173 53.9378 35.8173C53.661 35.8173 52.7157 35.9773 53.5644 35.9863C56.3545 36.0158 59.1127 35.7853 61.8911 35.5545C63.0516 35.4581 64.2057 35.3392 65.3636 35.2166C65.7728 35.1733 66.7798 34.7715 66.5958 35.1415C66.5369 35.2599 65.5905 35.4205 65.4943 35.4419C64.2283 35.7235 62.9003 35.7418 61.611 35.7798C59.6951 35.8363 57.7773 35.8173 55.8608 35.8173C54.1573 35.8173 59.2606 35.5918 60.9576 35.4419C64.8087 35.1018 68.6678 34.7971 72.5327 34.6722C74.3303 34.6141 79.7129 34.4104 77.9282 34.6347C76.2811 34.8417 74.7192 35.4764 73.0368 35.6108C72.6497 35.6418 69.675 36.1252 69.4709 35.8173C69.4021 35.7136 69.7063 35.7385 69.8256 35.7047C70.343 35.5584 70.8472 35.4244 71.3752 35.3105C73.1962 34.9176 75.0469 34.6664 76.9014 34.5033C78.7123 34.3439 80.5361 34.2318 82.3529 34.1654C82.9818 34.1424 84.787 33.949 84.2385 34.2592C83.7838 34.5164 82.7751 34.4119 82.2782 34.4657C79.773 34.7372 77.27 34.9722 74.7544 35.1322C70.1734 35.4235 65.5944 35.6484 61.0043 35.6484C60.489 35.6484 56.3767 35.6484 59.0813 35.6484C63.8677 35.6484 68.6936 35.0309 73.4662 34.7004C80.0435 34.245 86.6144 33.7231 93.2093 33.6304C93.3265 33.6287 96.5992 33.5151 94.8522 33.8744C91.4344 34.5773 87.9346 35.0701 84.4626 35.3856C81.6108 35.6447 78.6425 36.007 75.7719 35.808C75.0355 35.7569 77.1977 35.4078 77.9282 35.3011C82.4367 34.6426 87.0161 34.3971 91.557 34.0715C93.4246 33.9376 95.3023 33.7899 97.1765 33.7899C97.5495 33.7899 97.3907 33.7946 97.2886 33.9589C96.9906 34.4382 98.9129 34.1004 99.1555 34.0903C100.447 34.0367 101.731 33.9126 103.02 33.8275C103.424 33.8008 104.52 33.5022 104.234 33.7899C104.048 33.9767 102.639 33.9164 102.516 33.9213C100.557 33.9994 98.5947 34.0438 96.6351 34.0903C94.7624 34.1347 89.1424 34.1278 91.0156 34.1278C94.0587 34.1278 97.1019 34.1278 100.145 34.1278C101.719 34.1278 103.294 34.1118 104.868 34.1278C105.066 34.1298 105.566 34.1001 105.447 34.2592C105.384 34.3439 104.844 34.3664 104.812 34.3719C103.111 34.6624 101.405 34.875 99.6876 35.0477C94.5531 35.564 100.138 35.3105 96.7098 35.3105C93.7487 35.3105 90.7609 35.4216 87.8044 35.226C85.9064 35.1005 87.489 35.1142 88.3645 35.0571C92.3427 34.7973 96.3554 35.0007 100.341 34.8881C104.181 34.7796 108.019 34.8447 111.86 34.7942C113.729 34.7697 115.596 34.3156 117.442 34.3156C117.958 34.3156 117.441 34.455 117.274 34.4751C115.869 34.6446 114.457 34.7829 113.046 34.8787C109.598 35.1127 105.845 35.5013 102.413 34.8975C101.706 34.773 102.607 34.8036 102.693 34.8036C103.919 34.8036 105.145 34.8036 106.371 34.8036C114.034 34.8036 121.731 34.8561 129.382 34.3813C130.144 34.3339 130.908 34.2888 131.669 34.2123C131.678 34.2113 132.242 34.1466 132.35 34.1466C132.41 34.1466 132.241 34.2033 132.182 34.2123C130.25 34.5066 128.211 34.4657 126.264 34.4657C122.296 34.4657 118.329 34.4657 114.362 34.4657C101.271 34.4657 166.72 33.8069 153.633 34.1278C143.849 34.3678 134.081 34.8036 124.285 34.8036C123.407 34.8036 120.775 34.8036 121.652 34.8036C124.515 34.8036 127.378 34.8146 130.24 34.8036C137.148 34.7772 144.101 34.5552 151.001 34.2592C155.363 34.0721 159.722 33.4838 164.088 33.452C168.632 33.4189 155.093 34.8868 150.553 35.0664C148.314 35.155 141.593 35.2234 143.832 35.1415C147.341 35.0132 150.842 34.4023 154.343 34.1278C161.88 33.5371 169.436 33.621 176.989 33.621C180.731 33.621 169.51 33.9589 165.769 33.9589C162.507 33.9589 172.274 33.4688 175.533 33.3206C180.736 33.0841 186.156 32.755 191.355 33.2831C191.749 33.3231 192.927 33.452 192.531 33.452C191.348 33.452 190.167 33.506 188.984 33.5365C181.316 33.7342 173.625 33.6781 165.955 33.6116C162.002 33.5773 158.074 33.2822 154.128 33.1235C152.253 33.0481 154.824 33.4147 155.286 33.4333C160.82 33.6559 166.381 33.4176 171.92 33.5553C177.226 33.6872 182.531 33.8779 187.836 34.034C190.348 34.1079 197.87 34.0808 195.369 34.3249C183.803 35.4541 172.07 34.7878 160.476 34.6535C157.041 34.6136 146.735 34.6347 150.17 34.6347C168.105 34.6347 221.911 34.6347 203.976 34.6347C195.412 34.6347 186.855 34.9726 178.286 34.9726C175.405 34.9726 184.05 34.9631 186.93 34.8693C196.297 34.5644 205.666 34.0438 215.038 33.9589C216.799 33.9429 222.07 33.6156 220.321 33.8275C216.022 34.3483 211.794 34.4597 207.458 34.4657C200.356 34.4756 193.257 34.6147 186.156 34.6347C184.889 34.6383 183.497 34.7818 182.235 34.5971C181.648 34.5113 183.416 34.476 184.009 34.4657C189.43 34.3722 194.865 33.797 200.289 33.5834C205.746 33.3686 211.199 33.1141 216.662 33.1141C226.006 33.1141 197.973 33.2191 188.629 33.2925C184.671 33.3236 172.797 33.452 176.756 33.452C180.611 33.452 184.458 33.6174 188.312 33.6961C196.697 33.8671 205.084 33.7128 213.469 33.7993C215.789 33.8232 218.111 33.861 220.386 34.2968C222.451 34.6922 224.948 34.6474 226.883 35.4888C228.224 36.0716 229.516 36.831 231 36.831" stroke="#391714" stroke-linecap="round"/>
<path d="M215 33.3362C218.936 33.6604 222.794 32.8893 226.734 32.7552C231.867 32.5805 236.994 32.9756 242.127 32.9756C246.463 32.9756 233.474 33.6969 229.139 33.6969C226.342 33.6969 223.532 33.7801 220.736 33.6769C219.439 33.629 215.573 33.1559 216.871 33.1559C222.548 33.1559 228.219 33.4533 233.902 33.2962C237.618 33.1934 241.3 32.83 244.981 32.2943C245.585 32.2064 246.2 32.1426 246.797 32.0037C247.019 31.952 245.866 32.4534 245.842 32.4646C243.673 33.5046 241.506 33.9355 239.142 34.2279C234.858 34.7579 230.47 35.1049 226.154 35.1396C224.602 35.1521 223.007 35.2434 221.457 35.1396C221.006 35.1095 222.347 34.9783 222.795 34.9192C226.274 34.46 229.769 34.1563 233.266 33.8973C239.433 33.4405 245.63 33.1759 251.812 33.1759C251.943 33.1759 252.269 33.0732 252.205 33.196C252.022 33.5502 251.457 33.3187 251.082 33.3763C250.015 33.5406 248.945 33.6677 247.873 33.7971C245.407 34.0949 242.959 34.5186 240.48 34.6788C240.467 34.6796 237.494 34.9244 238.375 34.5585C240.053 33.8613 241.837 33.67 243.615 33.4765C247.845 33.0161 252.072 32.7952 256.323 32.7952C257.368 32.7952 260.475 32.559 259.457 32.8153C258.199 33.1323 256.905 33.3214 255.611 33.3362C252.835 33.3682 256.03 33.0381 256.94 32.9756C259.31 32.8128 261.682 32.7241 264.052 32.5748C264.334 32.557 266.476 32.4383 265.081 32.6249C259.89 33.3197 254.573 33.8409 249.342 33.8773C249.032 33.8794 247.96 33.8773 248.93 33.8773C252.219 33.8773 255.505 33.8523 258.793 33.7871C264.468 33.6746 270.157 33.5166 275.833 33.5166C278.083 33.5166 271.414 34.449 269.18 34.7389C268.916 34.7731 268.659 34.779 268.394 34.779C267.697 34.779 269.787 34.7323 270.481 34.6587C274.057 34.2793 277.611 33.6748 281.185 33.2761C282.779 33.0984 284.568 32.7846 286.173 32.9756C286.885 33.0602 284.786 33.3719 284.077 33.4765C280.353 34.0258 276.544 34.1162 272.792 34.1979C270.023 34.2581 267.252 34.2379 264.482 34.2379C255.705 34.2379 282.037 33.9608 290.814 33.9875C294.28 33.998 291.703 34.0989 290.964 34.1578C288.124 34.3842 285.295 34.4183 282.449 34.4183C281.404 34.4183 280.359 34.4183 279.314 34.4183C279.08 34.4183 278.431 34.537 278.612 34.3782C278.815 34.2003 279.462 34.18 279.66 34.1578C281.046 34.0028 282.452 34.0649 283.843 34.0476C290.653 33.9628 297.488 33.9004 304.28 33.3262C305.509 33.2223 309.195 32.8604 307.967 32.9856C306.207 33.165 304.454 33.4352 302.698 33.6568C301.292 33.8344 299.901 33.8773 298.487 33.8773C298.286 33.8773 300.445 33.8058 300.808 33.7871C304.796 33.5818 316.778 33.6969 312.786 33.6969C306.964 33.6969 301.162 33.894 295.343 34.0175C293.619 34.0541 291.864 33.9491 290.141 34.0576C288.02 34.1911 294.38 34.3804 296.504 34.4083C304.485 34.5131 312.477 34.5986 320.459 34.5986C325.309 34.5986 310.758 34.5986 305.908 34.5986C302.352 34.5986 291.686 34.8762 295.24 34.7689C304.188 34.4991 313.114 34.4008 322.068 34.4183C324.664 34.4234 327.433 34.2097 330.003 34.7389C330.414 34.8235 327.983 35.2097 327.683 35.2398C324.838 35.5253 321.946 35.4916 319.093 35.5003C317.711 35.5046 316.329 35.5003 314.947 35.5003C314.761 35.5003 312.556 35.7177 312.383 35.4101C312.214 35.1084 313.037 35.322 313.366 35.32C315.437 35.3072 317.509 35.3214 319.579 35.33C327.015 35.3609 334.451 35.4068 341.887 35.4602C343.466 35.4716 345.044 35.4811 346.622 35.5003C347.322 35.5088 348.055 35.3537 348.718 35.5905C349.651 35.9233 346.754 35.6848 345.771 35.6706C340.615 35.5965 335.459 35.458 330.303 35.3601C327.886 35.3141 325.501 35.2655 323.098 34.9994C321.934 34.8704 325.455 34.8716 325.521 34.8691C333.974 34.5527 342.438 34.8974 350.889 35.0996C352.954 35.149 359.149 35.1396 357.084 35.1396C355.917 35.1396 354.751 35.1333 353.584 35.1797C352.57 35.2201 351.558 35.29 350.543 35.31C349.946 35.3217 348.982 35.1463 348.382 35.33C346.848 35.799 351.569 35.507 353.163 35.4903C357.166 35.4485 361.165 35.32 365.169 35.32C367.929 35.32 376.211 35.32 373.45 35.32C365.382 35.32 357.311 35.3861 349.242 35.31C347.144 35.2902 345.179 35.1051 343.123 34.7088C343.036 34.6922 342.776 34.6556 342.861 34.6788C343.786 34.9304 344.734 35.0491 345.687 35.0996C352.481 35.4597 359.309 34.8951 366.105 35.4202C367.376 35.5184 368.636 35.6807 369.913 35.6807C370.182 35.6807 370.306 35.6528 370.503 35.8209C370.608 35.9109 370.845 35.861 370.971 35.861C371.507 35.861 369.898 35.8582 369.361 35.861C364.161 35.8884 358.964 36.0413 353.762 36.0413C353.528 36.0413 352.826 36.0413 353.06 36.0413C356.105 36.0413 359.148 36.0662 362.193 36.1215C366.366 36.1972 370.542 36.2573 374.714 36.392C375.035 36.4024 375.987 36.4977 375.668 36.5423C374.894 36.6503 373.94 36.4595 373.188 36.392C371.408 36.2321 369.641 36.0898 367.855 36.0413C367.412 36.0293 362.057 36.1808 361.941 35.6807C361.922 35.6 365.818 35.5003 365.964 35.5003C370.367 35.5003 374.957 35.4312 379.317 36.1816C379.919 36.285 380.552 36.2217 381.161 36.2217C383.104 36.2217 377.288 36.5675 375.35 36.7226C374.998 36.7508 372.883 36.7416 374.283 37.3037C375.018 37.5989 379.355 38.41 379.71 37.7445C380.077 37.058 379.579 36.402 380.656 36.402C381.036 36.402 381.7 36.3684 381.984 36.6725C382.096 36.7924 381.572 36.2328 381.582 36.402C381.605 36.8008 382.085 37.205 381.657 36.943C380.812 36.4261 379.26 37.6096 378.382 37.8447" stroke="#391714" stroke-linecap="round"/>
<path d="M385 84.1282C385 84.3895 385 85.754 385 85.6256C385 85.5561 385 84.6879 385 84.4818C385 84.3183 385 84.1878 385 84.0918C385 83.6601 385 84.8698 385 85.2461C385 85.5008 385 85.7425 385 86" stroke="#391714" stroke-linecap="round"/>
<line x1="385" y1="42" x2="385" y2="37" stroke="#5E1C16" stroke-width="2"/>
<path d="M104 87.3907C104.995 87.3907 106.012 87.503 107.008 87.5516C108.655 87.6319 110.311 87.5838 111.96 87.5838C114.06 87.5838 116.161 87.5838 118.261 87.5838C119.485 87.5838 120.715 87.4279 121.938 87.5552C123.422 87.7098 124.899 87.7125 126.387 87.7125C127.846 87.7125 129.273 87.6482 130.729 87.6482C130.795 87.6482 130.861 87.6482 130.926 87.6482C131.526 87.6482 129.729 87.5811 129.13 87.5444C127.605 87.4511 126.084 87.2284 124.557 87.2011C123.852 87.1885 123.147 87.1975 122.443 87.1975C121.921 87.1975 121.405 87.0843 120.884 87.0724C116.972 86.9834 113.059 87.0044 109.146 87.0044C108.379 87.0044 107.608 86.9814 106.841 87.0402C106.626 87.0567 106.061 86.9929 105.889 87.2262C105.733 87.4378 105.926 87.9518 106.08 88.131C106.227 88.3017 106.483 88.1991 106.619 88.342C106.746 88.4742 106.92 88.5182 107.082 88.5637C107.282 88.6203 107.488 88.6644 107.692 88.7067C107.847 88.7391 108.21 88.6589 108.33 88.7747C108.449 88.8907 108.955 88.7425 109.131 88.7425C109.751 88.7425 110.35 88.6585 110.97 88.7282C112.729 88.9257 114.52 88.7425 116.283 88.7425C117.159 88.7425 118.058 88.6826 118.933 88.7461C119.717 88.803 120.494 88.8069 121.281 88.8069C121.835 88.8069 122.428 88.8742 122.982 88.7926C123.798 88.6724 124.649 88.736 125.457 88.9034C126.085 89.0336 126.791 88.9356 127.423 88.9356C128.29 88.9356 129.153 89 130.02 89C130.606 89 131.191 88.9356 131.783 88.9356C134.188 88.9356 136.594 89 139 89" stroke="#5E1C16" stroke-linecap="round"/>
<path d="M132.148 87.3879C131.923 87.4241 131.709 87.4633 131.468 87.4694C131.319 87.4733 131.173 87.5271 131.025 87.551C130.901 87.5711 131.271 87.6326 131.396 87.6326C132.483 87.6326 133.574 87.551 134.664 87.551C136.389 87.551 138.148 87.5055 139.871 87.3471C141.258 87.2195 142.685 87.2428 144.071 87.3697C144.789 87.4355 145.495 87.3063 146.21 87.3063C146.791 87.3063 147.368 87.1431 147.956 87.1431C148.81 87.1431 149.665 87.1653 150.519 87.1386C151.5 87.1079 152.479 87.0615 153.462 87.0615C153.694 87.0615 153.943 87.1015 154.173 87.057C154.571 86.9798 155.04 86.9377 155.414 87.2247C155.561 87.338 155.495 87.8265 155.495 88.0405C155.495 88.2369 155.404 88.8155 155.298 88.9379C155.249 88.9951 155.235 89.2081 155.183 89.305C155.003 89.6419 154.582 89.6865 154.329 89.7537C153.497 89.9746 152.7 90.0186 151.859 89.9939C149.065 89.9118 146.274 89.5905 143.478 89.5905C142.577 89.5905 141.676 89.5905 140.775 89.5905C140.302 89.5905 139.821 89.7494 139.35 89.8171C139.042 89.8614 138.817 89.7278 138.518 89.6766C138.157 89.6149 138.208 88.9778 138.334 88.5481C138.538 87.8514 139.482 88.0551 139.852 88.045C140.952 88.0152 141.968 88.5067 143.048 88.5934C145.29 88.7735 147.558 88.4484 149.802 88.4484C151.867 88.4484 153.939 88.2772 156 88.4484" stroke="#5E1C16" stroke-linecap="round"/>
<path d="M155.682 87.3843C161.094 87.3843 166.504 87.3179 171.915 87.3179C173.442 87.3179 174.972 87.3665 176.5 87.3879C178.118 87.4107 179.728 87.5832 181.347 87.5832C182.358 87.5832 183.375 87.6167 184.379 87.4506C185.144 87.3241 185.932 87.4232 186.689 87.2811C188.319 86.9749 190.015 87.0527 191.664 87.0527C192.337 87.0527 193.078 86.927 193.739 87.0638C193.928 87.103 193.932 87.5806 193.952 87.7784C194.001 88.25 194.057 89.1388 193.873 89.5391C193.821 89.6517 193.763 89.7527 193.656 89.7859C192.776 90.0592 191.7 90.0218 190.801 89.9406C190.012 89.8694 189.244 89.8375 188.452 89.8375C187.404 89.8375 186.379 89.7252 185.334 89.6533C183.536 89.5297 181.729 89.4616 179.928 89.4397C179.005 89.4284 178.083 89.3811 177.159 89.3734C176.547 89.3682 175.944 89.2563 175.334 89.2039C174.581 89.1392 173.825 89.1946 173.071 89.1597C170.591 89.0451 168.096 88.9092 165.615 88.9092C165.037 88.9092 164.455 89.1082 163.87 89.1082C162.413 89.1082 160.96 89.1304 159.502 89.1082C158.232 89.0887 156.946 89.0419 155.682 89.0419C155.499 89.0419 155.316 89.0419 155.133 89.0419C154.967 89.0419 154.953 88.4894 155.109 88.4451C156.417 88.0734 157.829 88.2462 159.166 88.2462C159.463 88.2462 159.76 88.2462 160.057 88.2462C160.072 88.2462 160.626 88.2374 160.466 88.3493C159.953 88.7078 159.098 88.6644 158.544 88.6993C157.883 88.7409 157.223 88.7337 156.561 88.7398C156.482 88.7405 156.252 88.7213 156.149 88.7766C155.967 88.8745 155.832 89.0887 155.655 89.2076C155.34 89.4186 156.324 89.336 156.405 89.3402C157.604 89.4032 158.806 89.4487 160.005 89.5023C161.442 89.5665 162.889 89.506 164.328 89.506C167.772 89.506 171.237 89.6321 174.675 89.4434C175.529 89.3965 176.372 89.4233 177.226 89.3365C178.814 89.1751 180.4 88.993 181.991 88.8429C184.295 88.6255 186.604 88.5709 188.916 88.4598C189.45 88.4341 189.985 88.4514 190.52 88.4451C190.965 88.4399 191.395 88.3125 191.838 88.3125C191.99 88.3125 192.923 88.3089 192.9 88.3788C192.839 88.5567 192.746 88.5887 192.613 88.6735C192.036 89.0402 191.334 89.3534 190.673 89.3734C190.285 89.3851 189.921 89.2408 189.526 89.2408C187.201 89.2408 184.864 89.1417 182.546 88.9313C180.515 88.7471 178.511 88.3281 176.469 88.3125C174.91 88.3006 173.371 88.2229 171.826 87.9663C171.078 87.842 170.362 87.8484 169.605 87.8484C167.533 87.8484 165.454 87.9072 163.382 87.8336C162.025 87.7854 160.66 87.8415 159.307 87.7158" stroke="#5E1C16" stroke-linecap="round"/>
<path d="M195 87C195 87.4864 195 87.7304 195 88" stroke="#5E1C16" stroke-linecap="round"/>
<path d="M195 87.2187C195.923 87.2187 196.845 87.2406 197.76 87.4064C198.504 87.5415 199.194 87.5566 199.953 87.5566C203.602 87.5566 207.235 87.5503 210.875 87.2562C214.462 86.9664 218.112 87.1511 221.711 87.1511C227.709 87.1511 233.709 86.8588 239.705 87.0873C241.52 87.1564 243.334 87.1511 245.151 87.1511C246.611 87.1511 248.098 87.2545 249.555 87.1361C249.976 87.1019 250.39 87.0684 250.812 87.0835C251.096 87.0937 251.405 87.1513 251.681 87.2337C251.825 87.2769 251.781 87.4434 251.856 87.5529C252.042 87.8244 251.995 88.2284 251.995 88.5704C251.995 88.9236 251.785 89.1667 251.508 89.2763C249.674 90.0014 247.631 89.8819 245.736 89.9522C243.652 90.0296 241.568 89.9898 239.483 89.9898C237.73 89.9898 235.98 89.9687 234.229 89.9184C232.463 89.8678 230.697 89.5914 228.934 89.4829C226.559 89.3367 224.159 89.4491 221.782 89.4491C220.007 89.4491 218.231 89.4491 216.456 89.4491C215.056 89.4491 213.628 89.3518 212.23 89.4829C211.703 89.5323 211.179 89.5842 210.65 89.5842C209.73 89.5842 208.825 89.7194 207.906 89.7194C204.308 89.7194 200.711 89.7194 197.113 89.7194C196.556 89.7194 196 89.7194 195.444 89.7194C195.374 89.7194 195.339 89.7006 195.277 89.6668C195.106 89.5744 195.09 89.4732 195.059 89.22C195.011 88.8456 195.189 88.8496 195.462 88.7732C196.095 88.5959 196.781 88.7015 197.427 88.638C199.032 88.4802 200.633 88.6464 202.238 88.638C203.581 88.631 204.917 88.5028 206.261 88.5028C206.645 88.5028 207.016 88.5626 207.394 88.5704C209.811 88.6204 212.232 88.5704 214.648 88.5704C217.854 88.5704 221.052 88.3677 224.258 88.3677C230.023 88.3677 235.791 88.2325 241.553 88.2325C243.789 88.2325 246.017 88.0973 248.252 88.0973C248.824 88.0973 249.394 88.0297 249.956 88.0297C250.11 88.0297 250.609 87.8943 250.609 88.1987C250.609 88.2409 250.632 88.6808 250.596 88.6906C249.278 89.0523 247.851 89.1499 246.506 89.3139C246.359 89.3318 246.213 89.3668 246.065 89.3815C244.79 89.5084 243.448 89.5473 242.175 89.3815C239.607 89.0468 237 89.1111 234.419 89.1111" stroke="#5E1C16" stroke-linecap="round"/>
<path d="M251.288 88.2914C251.267 88.4791 250.76 88.5647 250.649 88.5932C250.585 88.6094 249.946 88.7637 250.004 88.6563C250.194 88.3009 250.563 88.143 250.907 88.0878C252.215 87.8777 253.537 87.8542 254.849 87.6316C256.134 87.4134 257.422 87.4471 258.723 87.5017C260.721 87.5856 262.783 87.4303 264.776 87.2315C266.094 87.0999 267.423 87.0606 268.745 87.0069C269.498 86.9763 270.184 87.0552 270.923 87.0876C272.593 87.161 274.283 87.2175 275.953 87.2175C276.43 87.2175 276.918 87.178 277.391 87.2491C277.498 87.2652 277.818 87.2212 277.91 87.2912C277.987 87.3499 277.999 87.6763 277.999 87.786C277.999 88.2299 278.023 88.5782 277.833 88.9581C277.509 89.6066 276.423 89.58 275.873 89.632C274.987 89.7155 274.105 89.8533 273.218 89.9303C271.903 90.0444 270.584 89.9985 269.267 89.9338C266.981 89.8214 264.686 89.8665 262.404 89.667C260.643 89.5132 258.905 89.3652 257.138 89.3652C256.404 89.3652 255.672 89.3021 254.938 89.3021C253.876 89.3021 252.816 89.2389 251.755 89.2389C251.645 89.2389 251.349 89.3211 251.349 89.1301C251.349 88.9265 251.443 88.5956 251.62 88.4949C251.802 88.3908 252.207 88.4311 252.4 88.4177C253.007 88.3757 253.604 88.3545 254.213 88.3545C257.397 88.3545 260.578 88.2914 263.762 88.2914C265.09 88.2914 266.417 88.2806 267.743 88.3545C268.514 88.3975 269.316 88.4877 270.088 88.4142C270.728 88.3533 271.363 88.2316 272.008 88.1931C273.079 88.1291 274.156 88.165 275.228 88.165C275.368 88.165 277.209 87.9147 277.225 88.2282C277.235 88.4349 276.977 88.4922 276.844 88.544C276.187 88.7991 275.532 88.9248 274.844 89.0178C273.76 89.1644 272.671 89.083 271.584 89.0494C270.302 89.0098 269.018 89.0259 267.737 88.9722C265.551 88.8805 263.384 88.6704 261.193 88.6704C260.345 88.6704 259.546 88.8697 258.702 88.9511C256.914 89.1233 255.077 88.9715 253.288 88.9266C252.74 88.9128 252.192 88.94 251.644 88.9231C251.431 88.9165 251.446 88.6245 251.509 88.4809" stroke="#5E1C16" stroke-linecap="round"/>
<path d="M277 87.0607C277.206 87.1428 277.433 87.1213 277.649 87.1213C278.818 87.1213 279.987 87.1161 281.157 87.091C283.252 87.046 285.346 87.086 287.441 87.0573C288.28 87.0459 289.117 86.9974 289.956 87.0001C291.059 87.0036 292.138 87.1582 293.234 87.2627C295.002 87.4314 296.815 87.4614 298.589 87.4849C301.127 87.5186 303.665 87.4243 306.208 87.4243C307.048 87.4243 308 87.3132 308.812 87.5725C309.104 87.6656 309.012 88.0695 308.834 88.2862C308.585 88.589 307.871 88.6633 307.518 88.7172C306.32 88.8998 305.047 88.8005 303.841 88.8148C303.01 88.8247 302.178 88.8182 301.347 88.8182C298.565 88.8182 295.785 88.7576 293.003 88.7576C291.064 88.7576 289.119 88.8182 287.177 88.8182C285.706 88.8182 284.222 88.7545 282.752 88.8216C281.72 88.8687 280.691 89 279.656 89C279.273 89 278.89 89 278.507 89C278.242 89 278.273 88.7983 278.273 88.5488C278.273 87.929 279.332 88.0246 279.693 88.0304C280.771 88.0476 281.833 88.3094 282.912 88.33C285.403 88.3774 287.914 88.3686 290.402 88.2425C292.184 88.1521 293.978 88.2122 295.761 88.2122" stroke="#5E1C16" stroke-linecap="round"/>
<path d="M309.438 88.1456C309.586 88.1456 309.718 88.0966 309.865 88.0845C311.082 87.9851 312.317 88.0011 313.537 88.0303C314.955 88.0643 316.369 88.1456 317.789 88.1456C318.792 88.1456 319.791 88.0235 320.797 88.0235C322.043 88.0235 323.29 88.0235 324.536 88.0235C327.867 88.0235 331.197 88.0235 334.528 88.0235C334.811 88.0235 335.093 88.0235 335.376 88.0235C335.516 88.0235 335.863 87.9524 335.972 88.0574C336.151 88.2297 335.413 88.4329 335.382 88.4473C334.505 88.8622 333.375 88.939 332.43 88.939C329.589 88.939 326.747 88.939 323.906 88.939C318.603 88.939 313.302 89 308 89" stroke="#5E1C16" stroke-linecap="round"/>
<path d="M335.495 87.2146C336.024 87.2146 336.553 87.1339 337.083 87.1192C338.546 87.0787 340.014 87.1073 341.478 87.1073C342.991 87.1073 344.5 87 346.013 87C346.81 87 347.607 87 348.405 87C349.985 87 351.544 87.1609 353.123 87.1609C354.337 87.1609 355.549 87.2146 356.764 87.2146C358.434 87.2146 360.107 87.1609 361.779 87.1609C363.114 87.1609 364.443 87.0536 365.78 87.0536C366.602 87.0536 367.416 87 368.238 87C368.736 87 369.232 87.0536 369.725 87.0536C370.011 87.0536 370.347 87.0055 370.623 87.0805C370.678 87.0954 370.962 87.0769 370.996 87.1192C371.091 87.2382 369.48 87.5291 369.383 87.5364C367.681 87.6648 365.956 87.5901 364.249 87.5901C362.923 87.5901 361.596 87.5901 360.27 87.5901C359.023 87.5901 357.792 87.4939 356.547 87.4291C355.622 87.381 354.702 87.3755 353.777 87.3755C352.835 87.3755 351.916 87.5562 350.988 87.6467C350.388 87.7053 349.811 87.6673 349.208 87.6467C347.875 87.6011 346.534 87.6437 345.201 87.6437C344.175 87.6437 343.182 87.6793 342.159 87.7719C341.218 87.857 340.256 87.8047 339.312 87.8047C338.649 87.8047 337.985 87.8047 337.321 87.8047C336.913 87.8047 336.511 87.8984 336.106 87.9358C335.901 87.9546 335.086 88.109 335 87.8583" stroke="#5E1C16" stroke-linecap="round"/>
<ellipse cx="204" cy="81.5" rx="179" ry="8.5" fill="#391714"/>
<path d="M23 66C23 62.134 26.134 59 30 59H378C381.866 59 385 62.134 385 66V86H23V66Z" fill="#391714" stroke="#5E1C16" stroke-width="2"/>
<path d="M406.808 84.8668C406.969 84.9135 407.103 84.9582 407.213 85C407.103 85.0418 406.969 85.0865 406.808 85.1332C406.145 85.325 405.137 85.5199 403.784 85.7143C401.085 86.1022 397.092 86.478 391.934 86.8367C381.621 87.5538 366.691 88.2 348.235 88.7429C311.325 89.8285 260.33 90.5 204 90.5C147.67 90.5 96.6754 89.8285 59.7649 88.7429C41.3087 88.2 26.379 87.5538 16.066 86.8367C10.9076 86.478 6.91451 86.1022 4.21569 85.7143C2.86293 85.5199 1.85453 85.325 1.19232 85.1332C1.03096 85.0865 0.896889 85.0418 0.787434 85C0.896889 84.9582 1.03096 84.9135 1.19232 84.8668C1.85453 84.675 2.86293 84.4801 4.21569 84.2857C6.91451 83.8978 10.9076 83.522 16.066 83.1633C26.379 82.4462 41.3087 81.8 59.7649 81.2571C96.6754 80.1715 147.67 79.5 204 79.5C260.33 79.5 311.325 80.1715 348.235 81.2571C366.691 81.8 381.621 82.4462 391.934 83.1633C397.092 83.522 401.085 83.8978 403.784 84.2857C405.137 84.4801 406.145 84.675 406.808 84.8668Z" fill="#391714" stroke="#5E1C16"/>
<path d="M25 82.831C26.8248 82.831 28.9367 83.1628 30.6942 82.6621C32.1623 82.2439 34.0456 82.1552 35.5856 82.1552C37.1049 82.1552 38.6014 82.4931 40.1223 82.4931C41.1516 82.4931 42.1625 82.341 43.1842 82.3242C44.7178 82.2989 46.3055 82.1667 47.8142 81.9112C49.5674 81.6143 51.3419 81.6127 53.1164 81.6484C53.7034 81.6602 52.685 81.8814 52.631 81.8924C47.4774 82.9412 42.0445 82.6621 36.8178 82.6621C35.7079 82.6621 34.5585 82.831 33.4853 82.831C31.7052 82.831 29.9096 83 28.0991 83C27.8681 83 25.349 82.8368 25.6068 82.5776C25.9259 82.2568 27.5246 82.3408 27.8844 82.3242C30.0222 82.2254 32.1482 82.1552 34.2881 82.1552C36.4756 82.1552 38.663 82.1552 40.8505 82.1552C46.8378 82.1552 52.6959 81.1402 58.6426 80.8412C58.9028 80.8281 61.382 80.7687 60.8829 80.9163C59.1594 81.426 57.2232 81.6035 55.4314 81.7798C54.9345 81.8287 54.4363 81.8173 53.9378 81.8173C53.661 81.8173 52.7157 81.9773 53.5644 81.9863C56.3545 82.0158 59.1127 81.7853 61.8911 81.5545C63.0516 81.4581 64.2057 81.3392 65.3636 81.2166C65.7728 81.1733 66.7798 80.7715 66.5958 81.1415C66.5369 81.2599 65.5905 81.4205 65.4943 81.4419C64.2283 81.7235 62.9003 81.7418 61.611 81.7798C59.6951 81.8363 57.7773 81.8173 55.8608 81.8173C54.1573 81.8173 59.2606 81.5918 60.9576 81.4419C64.8087 81.1018 68.6678 80.7971 72.5327 80.6722C74.3303 80.6141 79.7129 80.4104 77.9282 80.6347C76.2811 80.8417 74.7192 81.4764 73.0368 81.6108C72.6497 81.6418 69.675 82.1252 69.4709 81.8173C69.4021 81.7136 69.7063 81.7385 69.8256 81.7047C70.343 81.5584 70.8472 81.4244 71.3752 81.3105C73.1962 80.9176 75.0469 80.6664 76.9014 80.5033C78.7123 80.3439 80.5361 80.2318 82.3529 80.1654C82.9818 80.1424 84.787 79.949 84.2385 80.2592C83.7838 80.5164 82.7751 80.4119 82.2782 80.4657C79.773 80.7372 77.27 80.9722 74.7544 81.1322C70.1734 81.4235 65.5944 81.6484 61.0043 81.6484C60.489 81.6484 56.3767 81.6484 59.0813 81.6484C63.8677 81.6484 68.6936 81.0309 73.4662 80.7004C80.0435 80.245 86.6144 79.7231 93.2093 79.6304C93.3265 79.6287 96.5992 79.5151 94.8522 79.8744C91.4344 80.5773 87.9346 81.0701 84.4626 81.3856C81.6108 81.6447 78.6425 82.007 75.7719 81.808C75.0355 81.7569 77.1977 81.4078 77.9282 81.3011C82.4367 80.6426 87.0161 80.3971 91.557 80.0715C93.4246 79.9376 95.3023 79.7899 97.1765 79.7899C97.5495 79.7899 97.3907 79.7946 97.2886 79.9589C96.9906 80.4382 98.9129 80.1004 99.1555 80.0903C100.447 80.0367 101.731 79.9126 103.02 79.8275C103.424 79.8008 104.52 79.5022 104.234 79.7899C104.048 79.9767 102.639 79.9164 102.516 79.9213C100.557 79.9994 98.5947 80.0438 96.6351 80.0903C94.7624 80.1347 89.1424 80.1278 91.0156 80.1278C94.0587 80.1278 97.1019 80.1278 100.145 80.1278C101.719 80.1278 103.294 80.1118 104.868 80.1278C105.066 80.1298 105.566 80.1001 105.447 80.2592C105.384 80.3439 104.844 80.3664 104.812 80.3719C103.111 80.6624 101.405 80.875 99.6876 81.0477C94.5531 81.564 100.138 81.3105 96.7098 81.3105C93.7487 81.3105 90.7609 81.4216 87.8044 81.226C85.9064 81.1005 87.489 81.1142 88.3645 81.0571C92.3427 80.7973 96.3554 81.0007 100.341 80.8881C104.181 80.7796 108.019 80.8447 111.86 80.7942C113.729 80.7697 115.596 80.3156 117.442 80.3156C117.958 80.3156 117.441 80.455 117.274 80.4751C115.869 80.6446 114.457 80.7829 113.046 80.8787C109.598 81.1127 105.845 81.5013 102.413 80.8975C101.706 80.773 102.607 80.8036 102.693 80.8036C103.919 80.8036 105.145 80.8036 106.371 80.8036C114.034 80.8036 121.731 80.8561 129.382 80.3813C130.144 80.3339 130.908 80.2888 131.669 80.2123C131.678 80.2113 132.242 80.1466 132.35 80.1466C132.41 80.1466 132.241 80.2033 132.182 80.2123C130.25 80.5066 128.211 80.4657 126.264 80.4657C122.296 80.4657 118.329 80.4657 114.362 80.4657C101.271 80.4657 166.72 79.8069 153.633 80.1278C143.849 80.3678 134.081 80.8036 124.285 80.8036C123.407 80.8036 120.775 80.8036 121.652 80.8036C124.515 80.8036 127.378 80.8146 130.24 80.8036C137.148 80.7772 144.101 80.5552 151.001 80.2592C155.363 80.0721 159.722 79.4838 164.088 79.452C168.632 79.4189 155.093 80.8868 150.553 81.0664C148.314 81.155 141.593 81.2234 143.832 81.1415C147.341 81.0132 150.842 80.4023 154.343 80.1278C161.88 79.5371 169.436 79.621 176.989 79.621C180.731 79.621 169.51 79.9589 165.769 79.9589C162.507 79.9589 172.274 79.4688 175.533 79.3206C180.736 79.0841 186.156 78.755 191.355 79.2831C191.749 79.3231 192.927 79.452 192.531 79.452C191.348 79.452 190.167 79.506 188.984 79.5365C181.316 79.7342 173.625 79.6781 165.955 79.6116C162.002 79.5773 158.074 79.2822 154.128 79.1235C152.253 79.0481 154.824 79.4147 155.286 79.4333C160.82 79.6559 166.381 79.4176 171.92 79.5553C177.226 79.6872 182.531 79.8779 187.836 80.034C190.348 80.1079 197.87 80.0808 195.369 80.3249C183.803 81.4541 172.07 80.7878 160.476 80.6535C157.041 80.6136 146.735 80.6347 150.17 80.6347C168.105 80.6347 221.911 80.6347 203.976 80.6347C195.412 80.6347 186.855 80.9726 178.286 80.9726C175.405 80.9726 184.05 80.9631 186.93 80.8693C196.297 80.5644 205.666 80.0438 215.038 79.9589C216.799 79.9429 222.07 79.6156 220.321 79.8275C216.022 80.3483 211.794 80.4597 207.458 80.4657C200.356 80.4756 193.257 80.6147 186.156 80.6347C184.889 80.6383 183.497 80.7818 182.235 80.5971C181.648 80.5113 183.416 80.476 184.009 80.4657C189.43 80.3722 194.865 79.797 200.289 79.5834C205.746 79.3686 211.199 79.1141 216.662 79.1141C226.006 79.1141 197.973 79.2191 188.629 79.2925C184.671 79.3236 172.797 79.452 176.756 79.452C180.611 79.452 184.458 79.6174 188.312 79.6961C196.697 79.8671 205.084 79.7128 213.469 79.7993C215.789 79.8232 218.111 79.861 220.386 80.2968C222.451 80.6922 224.948 80.6474 226.883 81.4888C228.224 82.0716 229.516 82.831 231 82.831" stroke="#391714" stroke-linecap="round"/>
<path d="M215 79.3362C218.936 79.6604 222.794 78.8893 226.734 78.7552C231.867 78.5805 236.994 78.9756 242.127 78.9756C246.463 78.9756 233.474 79.6969 229.139 79.6969C226.342 79.6969 223.532 79.7801 220.736 79.6769C219.439 79.629 215.573 79.1559 216.871 79.1559C222.548 79.1559 228.219 79.4533 233.902 79.2962C237.618 79.1934 241.3 78.83 244.981 78.2943C245.585 78.2064 246.2 78.1426 246.797 78.0037C247.019 77.952 245.866 78.4534 245.842 78.4646C243.673 79.5046 241.506 79.9355 239.142 80.2279C234.858 80.7579 230.47 81.1049 226.154 81.1396C224.602 81.1521 223.007 81.2434 221.457 81.1396C221.006 81.1095 222.347 80.9783 222.795 80.9192C226.274 80.46 229.769 80.1563 233.266 79.8973C239.433 79.4405 245.63 79.1759 251.812 79.1759C251.943 79.1759 252.269 79.0732 252.205 79.196C252.022 79.5502 251.457 79.3187 251.082 79.3763C250.015 79.5406 248.945 79.6677 247.873 79.7971C245.407 80.0949 242.959 80.5186 240.48 80.6788C240.467 80.6796 237.494 80.9244 238.375 80.5585C240.053 79.8613 241.837 79.67 243.615 79.4765C247.845 79.0161 252.072 78.7952 256.323 78.7952C257.368 78.7952 260.475 78.559 259.457 78.8153C258.199 79.1323 256.905 79.3214 255.611 79.3362C252.835 79.3682 256.03 79.0381 256.94 78.9756C259.31 78.8128 261.682 78.7241 264.052 78.5748C264.334 78.557 266.476 78.4383 265.081 78.6249C259.89 79.3197 254.573 79.8409 249.342 79.8773C249.032 79.8794 247.96 79.8773 248.93 79.8773C252.219 79.8773 255.505 79.8523 258.793 79.7871C264.468 79.6746 270.157 79.5166 275.833 79.5166C278.083 79.5166 271.414 80.449 269.18 80.7389C268.916 80.7731 268.659 80.779 268.394 80.779C267.697 80.779 269.787 80.7323 270.481 80.6587C274.057 80.2793 277.611 79.6748 281.185 79.2761C282.779 79.0984 284.568 78.7846 286.173 78.9756C286.885 79.0602 284.786 79.3719 284.077 79.4765C280.353 80.0258 276.544 80.1162 272.792 80.1979C270.023 80.2581 267.252 80.2379 264.482 80.2379C255.705 80.2379 282.037 79.9608 290.814 79.9875C294.28 79.998 291.703 80.0989 290.964 80.1578C288.124 80.3842 285.295 80.4183 282.449 80.4183C281.404 80.4183 280.359 80.4183 279.314 80.4183C279.08 80.4183 278.431 80.537 278.612 80.3782C278.815 80.2003 279.462 80.18 279.66 80.1578C281.046 80.0028 282.452 80.0649 283.843 80.0476C290.653 79.9628 297.488 79.9004 304.28 79.3262C305.509 79.2223 309.195 78.8604 307.967 78.9856C306.207 79.165 304.454 79.4352 302.698 79.6568C301.292 79.8344 299.901 79.8773 298.487 79.8773C298.286 79.8773 300.445 79.8058 300.808 79.7871C304.796 79.5818 316.778 79.6969 312.786 79.6969C306.964 79.6969 301.162 79.894 295.343 80.0175C293.619 80.0541 291.864 79.9491 290.141 80.0576C288.02 80.1911 294.38 80.3804 296.504 80.4083C304.485 80.5131 312.477 80.5986 320.459 80.5986C325.309 80.5986 310.758 80.5986 305.908 80.5986C302.352 80.5986 291.686 80.8762 295.24 80.7689C304.188 80.4991 313.114 80.4008 322.068 80.4183C324.664 80.4234 327.433 80.2097 330.003 80.7389C330.414 80.8235 327.983 81.2097 327.683 81.2398C324.838 81.5253 321.946 81.4916 319.093 81.5003C317.711 81.5046 316.329 81.5003 314.947 81.5003C314.761 81.5003 312.556 81.7177 312.383 81.4101C312.214 81.1084 313.037 81.322 313.366 81.32C315.437 81.3072 317.509 81.3214 319.579 81.33C327.015 81.3609 334.451 81.4068 341.887 81.4602C343.466 81.4716 345.044 81.4811 346.622 81.5003C347.322 81.5088 348.055 81.3537 348.718 81.5905C349.651 81.9233 346.754 81.6848 345.771 81.6706C340.615 81.5965 335.459 81.458 330.303 81.3601C327.886 81.3141 325.501 81.2655 323.098 80.9994C321.934 80.8704 325.455 80.8716 325.521 80.8691C333.974 80.5527 342.438 80.8974 350.889 81.0996C352.954 81.149 359.149 81.1396 357.084 81.1396C355.917 81.1396 354.751 81.1333 353.584 81.1797C352.57 81.2201 351.558 81.29 350.543 81.31C349.946 81.3217 348.982 81.1463 348.382 81.33C346.848 81.799 351.569 81.507 353.163 81.4903C357.166 81.4485 361.165 81.32 365.169 81.32C367.929 81.32 376.211 81.32 373.45 81.32C365.382 81.32 357.311 81.3861 349.242 81.31C347.144 81.2902 345.179 81.1051 343.123 80.7088C343.036 80.6922 342.776 80.6556 342.861 80.6788C343.786 80.9304 344.734 81.0491 345.687 81.0996C352.481 81.4597 359.309 80.8951 366.105 81.4202C367.376 81.5184 368.636 81.6807 369.913 81.6807C370.182 81.6807 370.306 81.6528 370.503 81.8209C370.608 81.9109 370.845 81.861 370.971 81.861C371.507 81.861 369.898 81.8582 369.361 81.861C364.161 81.8884 358.964 82.0413 353.762 82.0413C353.528 82.0413 352.826 82.0413 353.06 82.0413C356.105 82.0413 359.148 82.0662 362.193 82.1215C366.366 82.1972 370.542 82.2573 374.714 82.392C375.035 82.4024 375.987 82.4977 375.668 82.5423C374.894 82.6503 373.94 82.4595 373.188 82.392C371.408 82.2321 369.641 82.0898 367.855 82.0413C367.412 82.0293 362.057 82.1808 361.941 81.6807C361.922 81.6 365.818 81.5003 365.964 81.5003C370.367 81.5003 374.957 81.4312 379.317 82.1816C379.919 82.285 380.552 82.2217 381.161 82.2217C383.104 82.2217 377.288 82.5675 375.35 82.7226C374.998 82.7508 372.883 82.7416 374.283 83.3037C375.018 83.5989 379.355 84.41 379.71 83.7445C380.077 83.058 379.579 82.402 380.656 82.402C381.036 82.402 381.7 82.3684 381.984 82.6725C382.096 82.7924 381.572 82.2328 381.582 82.402C381.605 82.8008 382.085 83.205 381.657 82.943C380.812 82.4261 379.26 83.6096 378.382 83.8447" stroke="#391714" stroke-linecap="round"/>
<path d="M382.188 129.064C382.188 129.195 381.708 129.877 382.281 129.813C382.592 129.778 382.56 129.344 382.56 129.241C382.56 129.159 382.384 129.094 382.384 129.046C382.384 128.83 382.757 129.435 382.967 129.623C383.109 129.75 382.745 129.871 382.745 130" stroke="#391714" stroke-linecap="round"/>
<line x1="385" y1="87" x2="385" y2="83" stroke="#5E1C16" stroke-width="2"/>
<path d="M104 134.391C104.995 134.391 106.012 134.503 107.008 134.552C108.655 134.632 110.311 134.584 111.96 134.584C114.06 134.584 116.161 134.584 118.261 134.584C119.485 134.584 120.715 134.428 121.938 134.555C123.422 134.71 124.899 134.713 126.387 134.713C127.846 134.713 129.273 134.648 130.729 134.648C130.795 134.648 130.861 134.648 130.926 134.648C131.526 134.648 129.729 134.581 129.13 134.544C127.605 134.451 126.084 134.228 124.557 134.201C123.852 134.189 123.147 134.198 122.443 134.198C121.921 134.198 121.405 134.084 120.884 134.072C116.972 133.983 113.059 134.004 109.146 134.004C108.379 134.004 107.608 133.981 106.841 134.04C106.626 134.057 106.061 133.993 105.889 134.226C105.733 134.438 105.926 134.952 106.08 135.131C106.227 135.302 106.483 135.199 106.619 135.342C106.746 135.474 106.92 135.518 107.082 135.564C107.282 135.62 107.488 135.664 107.692 135.707C107.847 135.739 108.21 135.659 108.33 135.775C108.449 135.891 108.955 135.743 109.131 135.743C109.751 135.743 110.35 135.659 110.97 135.728C112.729 135.926 114.52 135.743 116.283 135.743C117.159 135.743 118.058 135.683 118.933 135.746C119.717 135.803 120.494 135.807 121.281 135.807C121.835 135.807 122.428 135.874 122.982 135.793C123.798 135.672 124.649 135.736 125.457 135.903C126.085 136.034 126.791 135.936 127.423 135.936C128.29 135.936 129.153 136 130.02 136C130.606 136 131.191 135.936 131.783 135.936C134.188 135.936 136.594 136 139 136" stroke="#5E1C16" stroke-linecap="round"/>
<path d="M132.148 135.259C131.923 135.283 131.709 135.309 131.468 135.313C131.319 135.316 131.173 135.351 131.025 135.367C130.901 135.381 131.271 135.422 131.396 135.422C132.483 135.422 133.574 135.367 134.664 135.367C136.389 135.367 138.148 135.337 139.871 135.231C141.258 135.146 142.685 135.162 144.071 135.246C144.789 135.29 145.495 135.204 146.21 135.204C146.791 135.204 147.368 135.095 147.956 135.095C148.81 135.095 149.665 135.11 150.519 135.092C151.5 135.072 152.479 135.041 153.462 135.041C153.694 135.041 153.943 135.068 154.173 135.038C154.571 134.987 155.04 134.958 155.414 135.15C155.561 135.225 155.495 135.551 155.495 135.694C155.495 135.825 155.404 136.21 155.298 136.292C155.249 136.33 155.235 136.472 155.183 136.537C155.003 136.761 154.582 136.791 154.329 136.836C153.497 136.983 152.7 137.012 151.859 136.996C149.065 136.941 146.274 136.727 143.478 136.727C142.577 136.727 141.676 136.727 140.775 136.727C140.302 136.727 139.821 136.833 139.35 136.878C139.042 136.908 138.817 136.819 138.518 136.784C138.157 136.743 138.208 136.319 138.334 136.032C138.538 135.568 139.482 135.703 139.852 135.697C140.952 135.677 141.968 136.004 143.048 136.062C145.29 136.182 147.558 135.966 149.802 135.966C151.867 135.966 153.939 135.851 156 135.966" stroke="#5E1C16" stroke-linecap="round"/>
<path d="M155.682 134.384C161.094 134.384 166.504 134.318 171.915 134.318C173.442 134.318 174.972 134.366 176.5 134.388C178.118 134.411 179.728 134.583 181.347 134.583C182.358 134.583 183.375 134.617 184.379 134.451C185.144 134.324 185.932 134.423 186.689 134.281C188.319 133.975 190.015 134.053 191.664 134.053C192.337 134.053 193.078 133.927 193.739 134.064C193.928 134.103 193.932 134.581 193.952 134.778C194.001 135.25 194.057 136.139 193.873 136.539C193.821 136.652 193.763 136.753 193.656 136.786C192.776 137.059 191.7 137.022 190.801 136.941C190.012 136.869 189.244 136.837 188.452 136.837C187.404 136.837 186.379 136.725 185.334 136.653C183.536 136.53 181.729 136.462 179.928 136.44C179.005 136.428 178.083 136.381 177.159 136.373C176.547 136.368 175.944 136.256 175.334 136.204C174.581 136.139 173.825 136.195 173.071 136.16C170.591 136.045 168.096 135.909 165.615 135.909C165.037 135.909 164.455 136.108 163.87 136.108C162.413 136.108 160.96 136.13 159.502 136.108C158.232 136.089 156.946 136.042 155.682 136.042C155.499 136.042 155.316 136.042 155.133 136.042C154.967 136.042 154.953 135.489 155.109 135.445C156.417 135.073 157.829 135.246 159.166 135.246C159.463 135.246 159.76 135.246 160.057 135.246C160.072 135.246 160.626 135.237 160.466 135.349C159.953 135.708 159.098 135.664 158.544 135.699C157.883 135.741 157.223 135.734 156.561 135.74C156.482 135.741 156.252 135.721 156.149 135.777C155.967 135.874 155.832 136.089 155.655 136.208C155.34 136.419 156.324 136.336 156.405 136.34C157.604 136.403 158.806 136.449 160.005 136.502C161.442 136.567 162.889 136.506 164.328 136.506C167.772 136.506 171.237 136.632 174.675 136.443C175.529 136.396 176.372 136.423 177.226 136.337C178.814 136.175 180.4 135.993 181.991 135.843C184.295 135.626 186.604 135.571 188.916 135.46C189.45 135.434 189.985 135.451 190.52 135.445C190.965 135.44 191.395 135.313 191.838 135.313C191.99 135.313 192.923 135.309 192.9 135.379C192.839 135.557 192.746 135.589 192.613 135.673C192.036 136.04 191.334 136.353 190.673 136.373C190.285 136.385 189.921 136.241 189.526 136.241C187.201 136.241 184.864 136.142 182.546 135.931C180.515 135.747 178.511 135.328 176.469 135.313C174.91 135.301 173.371 135.223 171.826 134.966C171.078 134.842 170.362 134.848 169.605 134.848C167.533 134.848 165.454 134.907 163.382 134.834C162.025 134.785 160.66 134.842 159.307 134.716" stroke="#5E1C16" stroke-linecap="round"/>
<path d="M195 134.219C195.923 134.219 196.845 134.241 197.76 134.406C198.504 134.542 199.194 134.557 199.953 134.557C203.602 134.557 207.235 134.55 210.875 134.256C214.462 133.966 218.112 134.151 221.711 134.151C227.709 134.151 233.709 133.859 239.705 134.087C241.52 134.156 243.334 134.151 245.151 134.151C246.611 134.151 248.098 134.255 249.555 134.136C249.976 134.102 250.39 134.068 250.812 134.083C251.096 134.094 251.405 134.151 251.681 134.234C251.825 134.277 251.781 134.443 251.856 134.553C252.042 134.824 251.995 135.228 251.995 135.57C251.995 135.924 251.785 136.167 251.508 136.276C249.674 137.001 247.631 136.882 245.736 136.952C243.652 137.03 241.568 136.99 239.483 136.99C237.73 136.99 235.98 136.969 234.229 136.918C232.463 136.868 230.697 136.591 228.934 136.483C226.559 136.337 224.159 136.449 221.782 136.449C220.007 136.449 218.231 136.449 216.456 136.449C215.056 136.449 213.628 136.352 212.23 136.483C211.703 136.532 211.179 136.584 210.65 136.584C209.73 136.584 208.825 136.719 207.906 136.719C204.308 136.719 200.711 136.719 197.113 136.719C196.556 136.719 196 136.719 195.444 136.719C195.374 136.719 195.339 136.701 195.277 136.667C195.106 136.574 195.09 136.473 195.059 136.22C195.011 135.846 195.189 135.85 195.462 135.773C196.095 135.596 196.781 135.702 197.427 135.638C199.032 135.48 200.633 135.646 202.238 135.638C203.581 135.631 204.917 135.503 206.261 135.503C206.645 135.503 207.016 135.563 207.394 135.57C209.811 135.62 212.232 135.57 214.648 135.57C217.854 135.57 221.052 135.368 224.258 135.368C230.023 135.368 235.791 135.232 241.553 135.232C243.789 135.232 246.017 135.097 248.252 135.097C248.824 135.097 249.394 135.03 249.956 135.03C250.11 135.03 250.609 134.894 250.609 135.199C250.609 135.241 250.632 135.681 250.596 135.691C249.278 136.052 247.851 136.15 246.506 136.314C246.359 136.332 246.213 136.367 246.065 136.381C244.79 136.508 243.448 136.547 242.175 136.381C239.607 136.047 237 136.111 234.419 136.111" stroke="#5E1C16" stroke-linecap="round"/>
<path d="M251.288 135.291C251.267 135.479 250.76 135.565 250.649 135.593C250.585 135.609 249.946 135.764 250.004 135.656C250.194 135.301 250.563 135.143 250.907 135.088C252.215 134.878 253.537 134.854 254.849 134.632C256.134 134.413 257.422 134.447 258.723 134.502C260.721 134.586 262.783 134.43 264.776 134.232C266.094 134.1 267.423 134.061 268.745 134.007C269.498 133.976 270.184 134.055 270.923 134.088C272.593 134.161 274.283 134.217 275.953 134.217C276.43 134.217 276.918 134.178 277.391 134.249C277.498 134.265 277.818 134.221 277.91 134.291C277.987 134.35 277.999 134.676 277.999 134.786C277.999 135.23 278.023 135.578 277.833 135.958C277.509 136.607 276.423 136.58 275.873 136.632C274.987 136.715 274.105 136.853 273.218 136.93C271.903 137.044 270.584 136.998 269.267 136.934C266.981 136.821 264.686 136.867 262.404 136.667C260.643 136.513 258.905 136.365 257.138 136.365C256.404 136.365 255.672 136.302 254.938 136.302C253.876 136.302 252.816 136.239 251.755 136.239C251.645 136.239 251.349 136.321 251.349 136.13C251.349 135.927 251.443 135.596 251.62 135.495C251.802 135.391 252.207 135.431 252.4 135.418C253.007 135.376 253.604 135.355 254.213 135.355C257.397 135.355 260.578 135.291 263.762 135.291C265.09 135.291 266.417 135.281 267.743 135.355C268.514 135.397 269.316 135.488 270.088 135.414C270.728 135.353 271.363 135.232 272.008 135.193C273.079 135.129 274.156 135.165 275.228 135.165C275.368 135.165 277.209 134.915 277.225 135.228C277.235 135.435 276.977 135.492 276.844 135.544C276.187 135.799 275.532 135.925 274.844 136.018C273.76 136.164 272.671 136.083 271.584 136.049C270.302 136.01 269.018 136.026 267.737 135.972C265.551 135.881 263.384 135.67 261.193 135.67C260.345 135.67 259.546 135.87 258.702 135.951C256.914 136.123 255.077 135.971 253.288 135.927C252.74 135.913 252.192 135.94 251.644 135.923C251.431 135.916 251.446 135.625 251.509 135.481" stroke="#5E1C16" stroke-linecap="round"/>
<path d="M277 134.061C277.206 134.143 277.433 134.121 277.649 134.121C278.818 134.121 279.987 134.116 281.157 134.091C283.252 134.046 285.346 134.086 287.441 134.057C288.28 134.046 289.117 133.997 289.956 134C291.059 134.004 292.138 134.158 293.234 134.263C295.002 134.431 296.815 134.461 298.589 134.485C301.127 134.519 303.665 134.424 306.208 134.424C307.048 134.424 308 134.313 308.812 134.572C309.104 134.666 309.012 135.07 308.834 135.286C308.585 135.589 307.871 135.663 307.518 135.717C306.32 135.9 305.047 135.8 303.841 135.815C303.01 135.825 302.178 135.818 301.347 135.818C298.565 135.818 295.785 135.758 293.003 135.758C291.064 135.758 289.119 135.818 287.177 135.818C285.706 135.818 284.222 135.755 282.752 135.822C281.72 135.869 280.691 136 279.656 136C279.273 136 278.89 136 278.507 136C278.242 136 278.273 135.798 278.273 135.549C278.273 134.929 279.332 135.025 279.693 135.03C280.771 135.048 281.833 135.309 282.912 135.33C285.403 135.377 287.914 135.369 290.402 135.242C292.184 135.152 293.978 135.212 295.761 135.212" stroke="#5E1C16" stroke-linecap="round"/>
<path d="M309.438 135.146C309.586 135.146 309.718 135.097 309.865 135.085C311.082 134.985 312.317 135.001 313.537 135.03C314.955 135.064 316.369 135.146 317.789 135.146C318.792 135.146 319.791 135.024 320.797 135.024C322.043 135.024 323.29 135.024 324.536 135.024C327.867 135.024 331.197 135.024 334.528 135.024C334.811 135.024 335.093 135.024 335.376 135.024C335.516 135.024 335.863 134.952 335.972 135.057C336.151 135.23 335.413 135.433 335.382 135.447C334.505 135.862 333.375 135.939 332.43 135.939C329.589 135.939 326.747 135.939 323.906 135.939C318.603 135.939 313.302 136 308 136" stroke="#5E1C16" stroke-linecap="round"/>
<path d="M335.495 134.215C336.024 134.215 336.553 134.134 337.083 134.119C338.546 134.079 340.014 134.107 341.478 134.107C342.991 134.107 344.5 134 346.013 134C346.81 134 347.607 134 348.405 134C349.985 134 351.544 134.161 353.123 134.161C354.337 134.161 355.549 134.215 356.764 134.215C358.434 134.215 360.107 134.161 361.779 134.161C363.114 134.161 364.443 134.054 365.78 134.054C366.602 134.054 367.416 134 368.238 134C368.736 134 369.232 134.054 369.725 134.054C370.011 134.054 370.347 134.005 370.623 134.08C370.678 134.095 370.962 134.077 370.996 134.119C371.091 134.238 369.48 134.529 369.383 134.536C367.681 134.665 365.956 134.59 364.249 134.59C362.923 134.59 361.596 134.59 360.27 134.59C359.023 134.59 357.792 134.494 356.547 134.429C355.622 134.381 354.702 134.376 353.777 134.376C352.835 134.376 351.916 134.556 350.988 134.647C350.388 134.705 349.811 134.667 349.208 134.647C347.875 134.601 346.534 134.644 345.201 134.644C344.175 134.644 343.182 134.679 342.159 134.772C341.218 134.857 340.256 134.805 339.312 134.805C338.649 134.805 337.985 134.805 337.321 134.805C336.913 134.805 336.511 134.898 336.106 134.936C335.901 134.955 335.086 135.109 335 134.858" stroke="#5E1C16" stroke-linecap="round"/>
<ellipse cx="204" cy="128.5" rx="179" ry="8.5" fill="#391714"/>
<path d="M23 113C23 109.134 26.134 106 30 106H378C381.866 106 385 109.134 385 113V133H23V113Z" fill="#391714" stroke="#5E1C16" stroke-width="2"/>
<path d="M406.808 131.867C406.969 131.914 407.103 131.958 407.213 132C407.103 132.042 406.969 132.086 406.808 132.133C406.145 132.325 405.137 132.52 403.784 132.714C401.085 133.102 397.092 133.478 391.934 133.837C381.621 134.554 366.691 135.2 348.235 135.743C311.325 136.828 260.33 137.5 204 137.5C147.67 137.5 96.6754 136.828 59.7649 135.743C41.3087 135.2 26.379 134.554 16.066 133.837C10.9076 133.478 6.91451 133.102 4.21569 132.714C2.86293 132.52 1.85453 132.325 1.19232 132.133C1.03096 132.086 0.896889 132.042 0.787434 132C0.896889 131.958 1.03096 131.914 1.19232 131.867C1.85453 131.675 2.86293 131.48 4.21569 131.286C6.91451 130.898 10.9076 130.522 16.066 130.163C26.379 129.446 41.3087 128.8 59.7649 128.257C96.6754 127.172 147.67 126.5 204 126.5C260.33 126.5 311.325 127.172 348.235 128.257C366.691 128.8 381.621 129.446 391.934 130.163C397.092 130.522 401.085 130.898 403.784 131.286C405.137 131.48 406.145 131.675 406.808 131.867Z" fill="#391714" stroke="#5E1C16"/>
<path d="M25 129.831C26.8248 129.831 28.9367 130.163 30.6942 129.662C32.1623 129.244 34.0456 129.155 35.5856 129.155C37.1049 129.155 38.6014 129.493 40.1223 129.493C41.1516 129.493 42.1625 129.341 43.1842 129.324C44.7178 129.299 46.3055 129.167 47.8142 128.911C49.5674 128.614 51.3419 128.613 53.1164 128.648C53.7034 128.66 52.685 128.881 52.631 128.892C47.4774 129.941 42.0445 129.662 36.8178 129.662C35.7079 129.662 34.5585 129.831 33.4853 129.831C31.7052 129.831 29.9096 130 28.0991 130C27.8681 130 25.349 129.837 25.6068 129.578C25.9259 129.257 27.5246 129.341 27.8844 129.324C30.0222 129.225 32.1482 129.155 34.2881 129.155C36.4756 129.155 38.663 129.155 40.8505 129.155C46.8378 129.155 52.6959 128.14 58.6426 127.841C58.9028 127.828 61.382 127.769 60.8829 127.916C59.1594 128.426 57.2232 128.604 55.4314 128.78C54.9345 128.829 54.4363 128.817 53.9378 128.817C53.661 128.817 52.7157 128.977 53.5644 128.986C56.3545 129.016 59.1127 128.785 61.8911 128.555C63.0516 128.458 64.2057 128.339 65.3636 128.217C65.7728 128.173 66.7798 127.771 66.5958 128.142C66.5369 128.26 65.5905 128.42 65.4943 128.442C64.2283 128.724 62.9003 128.742 61.611 128.78C59.6951 128.836 57.7773 128.817 55.8608 128.817C54.1573 128.817 59.2606 128.592 60.9576 128.442C64.8087 128.102 68.6678 127.797 72.5327 127.672C74.3303 127.614 79.7129 127.41 77.9282 127.635C76.2811 127.842 74.7192 128.476 73.0368 128.611C72.6497 128.642 69.675 129.125 69.4709 128.817C69.4021 128.714 69.7063 128.738 69.8256 128.705C70.343 128.558 70.8472 128.424 71.3752 128.31C73.1962 127.918 75.0469 127.666 76.9014 127.503C78.7123 127.344 80.5361 127.232 82.3529 127.165C82.9818 127.142 84.787 126.949 84.2385 127.259C83.7838 127.516 82.7751 127.412 82.2782 127.466C79.773 127.737 77.27 127.972 74.7544 128.132C70.1734 128.423 65.5944 128.648 61.0043 128.648C60.489 128.648 56.3767 128.648 59.0813 128.648C63.8677 128.648 68.6936 128.031 73.4662 127.7C80.0435 127.245 86.6144 126.723 93.2093 126.63C93.3265 126.629 96.5992 126.515 94.8522 126.874C91.4344 127.577 87.9346 128.07 84.4626 128.386C81.6108 128.645 78.6425 129.007 75.7719 128.808C75.0355 128.757 77.1977 128.408 77.9282 128.301C82.4367 127.643 87.0161 127.397 91.557 127.072C93.4246 126.938 95.3023 126.79 97.1765 126.79C97.5495 126.79 97.3907 126.795 97.2886 126.959C96.9906 127.438 98.9129 127.1 99.1555 127.09C100.447 127.037 101.731 126.913 103.02 126.827C103.424 126.801 104.52 126.502 104.234 126.79C104.048 126.977 102.639 126.916 102.516 126.921C100.557 126.999 98.5947 127.044 96.6351 127.09C94.7624 127.135 89.1424 127.128 91.0156 127.128C94.0587 127.128 97.1019 127.128 100.145 127.128C101.719 127.128 103.294 127.112 104.868 127.128C105.066 127.13 105.566 127.1 105.447 127.259C105.384 127.344 104.844 127.366 104.812 127.372C103.111 127.662 101.405 127.875 99.6876 128.048C94.5531 128.564 100.138 128.31 96.7098 128.31C93.7487 128.31 90.7609 128.422 87.8044 128.226C85.9064 128.1 87.489 128.114 88.3645 128.057C92.3427 127.797 96.3554 128.001 100.341 127.888C104.181 127.78 108.019 127.845 111.86 127.794C113.729 127.77 115.596 127.316 117.442 127.316C117.958 127.316 117.441 127.455 117.274 127.475C115.869 127.645 114.457 127.783 113.046 127.879C109.598 128.113 105.845 128.501 102.413 127.897C101.706 127.773 102.607 127.804 102.693 127.804C103.919 127.804 105.145 127.804 106.371 127.804C114.034 127.804 121.731 127.856 129.382 127.381C130.144 127.334 130.908 127.289 131.669 127.212C131.678 127.211 132.242 127.147 132.35 127.147C132.41 127.147 132.241 127.203 132.182 127.212C130.25 127.507 128.211 127.466 126.264 127.466C122.296 127.466 118.329 127.466 114.362 127.466C101.271 127.466 166.72 126.807 153.633 127.128C143.849 127.368 134.081 127.804 124.285 127.804C123.407 127.804 120.775 127.804 121.652 127.804C124.515 127.804 127.378 127.815 130.24 127.804C137.148 127.777 144.101 127.555 151.001 127.259C155.363 127.072 159.722 126.484 164.088 126.452C168.632 126.419 155.093 127.887 150.553 128.066C148.314 128.155 141.593 128.223 143.832 128.142C147.341 128.013 150.842 127.402 154.343 127.128C161.88 126.537 169.436 126.621 176.989 126.621C180.731 126.621 169.51 126.959 165.769 126.959C162.507 126.959 172.274 126.469 175.533 126.321C180.736 126.084 186.156 125.755 191.355 126.283C191.749 126.323 192.927 126.452 192.531 126.452C191.348 126.452 190.167 126.506 188.984 126.537C181.316 126.734 173.625 126.678 165.955 126.612C162.002 126.577 158.074 126.282 154.128 126.124C152.253 126.048 154.824 126.415 155.286 126.433C160.82 126.656 166.381 126.418 171.92 126.555C177.226 126.687 182.531 126.878 187.836 127.034C190.348 127.108 197.87 127.081 195.369 127.325C183.803 128.454 172.07 127.788 160.476 127.653C157.041 127.614 146.735 127.635 150.17 127.635C168.105 127.635 221.911 127.635 203.976 127.635C195.412 127.635 186.855 127.973 178.286 127.973C175.405 127.973 184.05 127.963 186.93 127.869C196.297 127.564 205.666 127.044 215.038 126.959C216.799 126.943 222.07 126.616 220.321 126.827C216.022 127.348 211.794 127.46 207.458 127.466C200.356 127.476 193.257 127.615 186.156 127.635C184.889 127.638 183.497 127.782 182.235 127.597C181.648 127.511 183.416 127.476 184.009 127.466C189.43 127.372 194.865 126.797 200.289 126.583C205.746 126.369 211.199 126.114 216.662 126.114C226.006 126.114 197.973 126.219 188.629 126.292C184.671 126.324 172.797 126.452 176.756 126.452C180.611 126.452 184.458 126.617 188.312 126.696C196.697 126.867 205.084 126.713 213.469 126.799C215.789 126.823 218.111 126.861 220.386 127.297C222.451 127.692 224.948 127.647 226.883 128.489C228.224 129.072 229.516 129.831 231 129.831" stroke="#391714" stroke-linecap="round"/>
<path d="M215 126.336C218.936 126.66 222.794 125.889 226.734 125.755C231.867 125.58 236.994 125.976 242.127 125.976C246.463 125.976 233.474 126.697 229.139 126.697C226.342 126.697 223.532 126.78 220.736 126.677C219.439 126.629 215.573 126.156 216.871 126.156C222.548 126.156 228.219 126.453 233.902 126.296C237.618 126.193 241.3 125.83 244.981 125.294C245.585 125.206 246.2 125.143 246.797 125.004C247.019 124.952 245.866 125.453 245.842 125.465C243.673 126.505 241.506 126.936 239.142 127.228C234.858 127.758 230.47 128.105 226.154 128.14C224.602 128.152 223.007 128.243 221.457 128.14C221.006 128.109 222.347 127.978 222.795 127.919C226.274 127.46 229.769 127.156 233.266 126.897C239.433 126.441 245.63 126.176 251.812 126.176C251.943 126.176 252.269 126.073 252.205 126.196C252.022 126.55 251.457 126.319 251.082 126.376C250.015 126.541 248.945 126.668 247.873 126.797C245.407 127.095 242.959 127.519 240.48 127.679C240.467 127.68 237.494 127.924 238.375 127.559C240.053 126.861 241.837 126.67 243.615 126.477C247.845 126.016 252.072 125.795 256.323 125.795C257.368 125.795 260.475 125.559 259.457 125.815C258.199 126.132 256.905 126.321 255.611 126.336C252.835 126.368 256.03 126.038 256.94 125.976C259.31 125.813 261.682 125.724 264.052 125.575C264.334 125.557 266.476 125.438 265.081 125.625C259.89 126.32 254.573 126.841 249.342 126.877C249.032 126.879 247.96 126.877 248.93 126.877C252.219 126.877 255.505 126.852 258.793 126.787C264.468 126.675 270.157 126.517 275.833 126.517C278.083 126.517 271.414 127.449 269.18 127.739C268.916 127.773 268.659 127.779 268.394 127.779C267.697 127.779 269.787 127.732 270.481 127.659C274.057 127.279 277.611 126.675 281.185 126.276C282.779 126.098 284.568 125.785 286.173 125.976C286.885 126.06 284.786 126.372 284.077 126.477C280.353 127.026 276.544 127.116 272.792 127.198C270.023 127.258 267.252 127.238 264.482 127.238C255.705 127.238 282.037 126.961 290.814 126.987C294.28 126.998 291.703 127.099 290.964 127.158C288.124 127.384 285.295 127.418 282.449 127.418C281.404 127.418 280.359 127.418 279.314 127.418C279.08 127.418 278.431 127.537 278.612 127.378C278.815 127.2 279.462 127.18 279.66 127.158C281.046 127.003 282.452 127.065 283.843 127.048C290.653 126.963 297.488 126.9 304.28 126.326C305.509 126.222 309.195 125.86 307.967 125.986C306.207 126.165 304.454 126.435 302.698 126.657C301.292 126.834 299.901 126.877 298.487 126.877C298.286 126.877 300.445 126.806 300.808 126.787C304.796 126.582 316.778 126.697 312.786 126.697C306.964 126.697 301.162 126.894 295.343 127.018C293.619 127.054 291.864 126.949 290.141 127.058C288.02 127.191 294.38 127.38 296.504 127.408C304.485 127.513 312.477 127.599 320.459 127.599C325.309 127.599 310.758 127.599 305.908 127.599C302.352 127.599 291.686 127.876 295.24 127.769C304.188 127.499 313.114 127.401 322.068 127.418C324.664 127.423 327.433 127.21 330.003 127.739C330.414 127.823 327.983 128.21 327.683 128.24C324.838 128.525 321.946 128.492 319.093 128.5C317.711 128.505 316.329 128.5 314.947 128.5C314.761 128.5 312.556 128.718 312.383 128.41C312.214 128.108 313.037 128.322 313.366 128.32C315.437 128.307 317.509 128.321 319.579 128.33C327.015 128.361 334.451 128.407 341.887 128.46C343.466 128.472 345.044 128.481 346.622 128.5C347.322 128.509 348.055 128.354 348.718 128.59C349.651 128.923 346.754 128.685 345.771 128.671C340.615 128.597 335.459 128.458 330.303 128.36C327.886 128.314 325.501 128.266 323.098 127.999C321.934 127.87 325.455 127.872 325.521 127.869C333.974 127.553 342.438 127.897 350.889 128.1C352.954 128.149 359.149 128.14 357.084 128.14C355.917 128.14 354.751 128.133 353.584 128.18C352.57 128.22 351.558 128.29 350.543 128.31C349.946 128.322 348.982 128.146 348.382 128.33C346.848 128.799 351.569 128.507 353.163 128.49C357.166 128.448 361.165 128.32 365.169 128.32C367.929 128.32 376.211 128.32 373.45 128.32C365.382 128.32 357.311 128.386 349.242 128.31C347.144 128.29 345.179 128.105 343.123 127.709C343.036 127.692 342.776 127.656 342.861 127.679C343.786 127.93 344.734 128.049 345.687 128.1C352.481 128.46 359.309 127.895 366.105 128.42C367.376 128.518 368.636 128.681 369.913 128.681C370.182 128.681 370.306 128.653 370.503 128.821C370.608 128.911 370.845 128.861 370.971 128.861C371.507 128.861 369.898 128.858 369.361 128.861C364.161 128.888 358.964 129.041 353.762 129.041C353.528 129.041 352.826 129.041 353.06 129.041C356.105 129.041 359.148 129.066 362.193 129.121C366.366 129.197 370.542 129.257 374.714 129.392C375.035 129.402 375.987 129.498 375.668 129.542C374.894 129.65 373.94 129.46 373.188 129.392C371.408 129.232 369.641 129.09 367.855 129.041C367.412 129.029 362.057 129.181 361.941 128.681C361.922 128.6 365.818 128.5 365.964 128.5C370.367 128.5 374.957 128.431 379.317 129.182C379.919 129.285 380.552 129.222 381.161 129.222C383.104 129.222 377.288 129.567 375.35 129.723C374.998 129.751 372.883 129.742 374.283 130.304C375.018 130.599 379.355 131.41 379.71 130.745C380.077 130.058 379.579 129.402 380.656 129.402C381.036 129.402 381.7 129.368 381.984 129.673C382.096 129.792 381.572 129.233 381.582 129.402C381.605 129.801 382.085 130.205 381.657 129.943C380.812 129.426 379.26 130.61 378.382 130.845" stroke="#391714" stroke-linecap="round"/>
<line x1="385" y1="134" x2="385" y2="130" stroke="#5E1C16" stroke-width="2"/>
<line x1="382.5" y1="33" x2="382.5" y2="40" stroke="#391714"/>
<line x1="382.5" y1="79" x2="382.5" y2="86" stroke="#391714"/>
<line x1="382.5" y1="126" x2="382.5" y2="133" stroke="#391714"/>
</svg>
